<?xml version="1.0" encoding="UTF-8"?>
<svg version="1.1" xmlns="http://www.w3.org/2000/svg" width="1024" height="1024">
<path d="M0 0 C337.92 0 675.84 0 1024 0 C1024 337.92 1024 675.84 1024 1024 C686.08 1024 348.16 1024 0 1024 C0 686.08 0 348.16 0 0 Z " fill="#FDFEFD" transform="translate(0,0)"/>
<path d="M0 0 C2.57468869 7.89066357 4.76089695 15.83572039 6.8125 23.875 C8.88728122 31.98278099 11.15279425 40.00445688 13.625 48 C17.30654861 59.91000983 20.62747437 71.75139609 23 84 C19.74886092 82.71118756 16.49929559 81.41845238 13.25 80.125 C12.32960938 79.76019531 11.40921875 79.39539063 10.4609375 79.01953125 C9.12675781 78.48779297 9.12675781 78.48779297 7.765625 77.9453125 C6.94868164 77.62062988 6.13173828 77.29594727 5.29003906 76.96142578 C3.14065548 76.05905131 1.07088948 75.06871204 -1 74 C-1.15927979 74.53439697 -1.31855957 75.06879395 -1.48266602 75.61938477 C-3.39983608 81.73147879 -5.94425485 87.28258717 -8.9375 92.9375 C-9.41767578 93.84701416 -9.89785156 94.75652832 -10.39257812 95.69360352 C-20.76404798 114.97239491 -33.94132916 132.17681202 -49 148 C-49.65226563 148.70511719 -50.30453125 149.41023437 -50.9765625 150.13671875 C-62.9041774 162.64802544 -81.47629951 178.48417689 -99.21875 180.3359375 C-110.2970297 180.46782178 -110.2970297 180.46782178 -115 176 C-120.30617618 170.20318424 -123.77176331 163.55493834 -127.5390625 156.69921875 C-132.12075413 148.48741759 -136.41953599 141.28179624 -145.93359375 138.41796875 C-158.41712501 135.89294447 -168.55388121 141.64373611 -178.77490234 148.27685547 C-187.60252296 154.26048206 -195.17646083 161.81939057 -202.28125 169.734375 C-204 171 -204 171 -205.8515625 171.0078125 C-208.95448283 169.55226078 -211.33765875 167.38288824 -213.875 165.125 C-218.4444776 161.15250044 -223.08021659 157.32223974 -227.875 153.625 C-233.80533399 149.03412519 -239.48914733 144.19733505 -245.11474609 139.23876953 C-245.70980957 138.71524902 -246.30487305 138.19172852 -246.91796875 137.65234375 C-247.44156982 137.18820068 -247.9651709 136.72405762 -248.50463867 136.24584961 C-250.19177773 134.79528833 -250.19177773 134.79528833 -253 133 C-253 132.34 -253 131.68 -253 131 C-251.15906635 129.43734702 -249.31453552 127.99417365 -247.375 126.5625 C-246.17004149 125.65435051 -244.96563212 124.74547205 -243.76171875 123.8359375 C-242.82465088 123.13162598 -242.82465088 123.13162598 -241.86865234 122.41308594 C-238.94846092 120.20481994 -236.06539915 117.95047401 -233.1875 115.6875 C-232.61241699 115.23576416 -232.03733398 114.78402832 -231.44482422 114.31860352 C-226.23948768 110.21541366 -221.10222865 106.03026572 -215.96606445 101.84106445 C-209.94075015 96.93389474 -203.84204938 92.12550805 -197.71777344 87.34277344 C-194.80728412 85.06766098 -191.90397084 82.78342281 -189 80.5 C-185.52685971 77.76903326 -182.05251091 75.03972472 -178.5703125 72.3203125 C-172.30611989 67.42265871 -166.0964549 62.46701904 -159.9375 57.4375 C-154.01099266 52.60406606 -148.05611584 47.82333688 -141.9375 43.234375 C-140.08071108 41.82203024 -138.26112352 40.35810106 -136.5 38.828125 C-130.42390842 33.83133916 -125.36953993 33.04076494 -117.546875 33.45703125 C-109.02679141 34.76131717 -103.92240484 39.75052373 -97.796875 45.4765625 C-94.65981547 48.30692627 -91.39898293 50.91117819 -88.0625 53.5 C-83.72664828 56.8663445 -79.42545686 60.25991788 -75.1875 63.75 C-70.52529287 67.5890578 -65.78989372 71.3218347 -61 75 C-61.61131411 79.93902983 -63.7505164 83.86119054 -66.0625 88.1875 C-66.465896 88.94345459 -66.86929199 89.69940918 -67.28491211 90.47827148 C-70.60114012 96.54362329 -74.33299218 101.88406157 -79 107 C-79.61230469 107.71542969 -80.22460938 108.43085938 -80.85546875 109.16796875 C-86.69299181 115.58322605 -93.80176455 120.46829801 -102.58984375 121.3671875 C-105.75160261 121.37417481 -108.84970596 121.2539043 -112 121 C-112.66 121 -113.32 121 -114 121 C-107.37721928 126.1273141 -101.86905434 127.96443822 -93.47265625 127.58984375 C-87.85144404 126.63505967 -83.62618787 124.23988915 -79 121 C-77.453125 119.9171875 -77.453125 119.9171875 -75.875 118.8125 C-66.25586943 110.16922325 -59.62827145 98.99173576 -54.4375 87.3125 C-54.04691406 86.43980469 -53.65632812 85.56710937 -53.25390625 84.66796875 C-49.71925934 76.62605396 -47.09302241 68.53309136 -45 60 C-45.72703125 59.89042969 -46.4540625 59.78085937 -47.203125 59.66796875 C-54.58882317 58.50330096 -61.77552138 56.92140389 -69 55 C-66.11398348 51.09457907 -63.07816747 48.32980751 -59.1875 45.4375 C-58.02238566 44.56129274 -56.85836687 43.68362726 -55.6953125 42.8046875 C-54.78700684 42.11971191 -54.78700684 42.11971191 -53.86035156 41.42089844 C-50.71853913 39.02124642 -47.64179371 36.54154152 -44.5625 34.0625 C-39.77661895 30.21481086 -34.96698446 26.40178954 -30.125 22.625 C-23.88748945 17.75321007 -17.77482618 12.73580407 -11.68408203 7.68212891 C-11.00200684 7.11671387 -10.31993164 6.55129883 -9.6171875 5.96875 C-9.01503418 5.46794922 -8.41288086 4.96714844 -7.79248047 4.45117188 C-2.29441454 0 -2.29441454 0 0 0 Z " fill="#F59A1E" transform="translate(633,282)"/>
<path d="M0 0 C2.82981432 1.86171995 5.6327621 3.73467213 8.37890625 5.71875 C9.22324219 6.3271875 10.06757813 6.935625 10.9375 7.5625 C11.73027344 8.14128906 12.52304687 8.72007812 13.33984375 9.31640625 C19.34545313 13.11731321 24.39873702 14.53785532 31.375 14.4375 C32.50252686 14.42396484 32.50252686 14.42396484 33.65283203 14.41015625 C43.66937985 14.09761391 49.67825822 9.8016207 57.51953125 3.8046875 C59.63702876 2.26408301 61.62262626 1.07508276 64 0 C64.66644531 0.61746094 65.33289063 1.23492188 66.01953125 1.87109375 C70.7068203 6.17815516 75.40818201 10.38837878 80.375 14.375 C85.16980275 18.24089509 89.66715828 22.34723298 94.15917969 26.55371094 C98.39512864 30.4980456 102.806439 34.16488001 107.3203125 37.7890625 C110.13253315 40.1093495 112.81797263 42.53071134 115.5 45 C119.9698512 49.11378909 124.59044893 52.97087297 129.31640625 56.78515625 C132.79560923 59.65663819 136.11162186 62.68837773 139.44140625 65.73046875 C143.06689431 68.94635969 146.85012993 71.95355587 150.65234375 74.95703125 C152.8108564 76.83540415 154.39584247 78.64405907 156 81 C150.21487399 83.96162276 145.59443437 84.42685622 139.1497345 84.3742218 C138.17469032 84.37819621 137.19964615 84.38217061 136.19505519 84.38626546 C132.93693474 84.39586862 129.67925065 84.38408219 126.42114258 84.37231445 C124.08180072 84.37474302 121.7424599 84.37846296 119.40312195 84.38337708 C113.05630738 84.39277923 106.70964721 84.383367 100.36284471 84.37004495 C94.39658981 84.35987591 88.43034953 84.362344 82.46408828 84.36424746 C70.64505947 84.3674346 58.826091 84.35578403 47.00708008 84.33618164 C35.53863692 84.3171657 24.07026444 84.31009781 12.60180664 84.31567383 C0.10836154 84.32173025 -12.38505252 84.32155807 -24.87849504 84.310188 C-31.49047253 84.30420044 -38.10242674 84.30052134 -44.71440697 84.3031559 C-50.92700168 84.30503592 -57.13950542 84.29695688 -63.35207939 84.2810955 C-65.63539504 84.27684403 -67.9187199 84.27600787 -70.20203781 84.27878571 C-73.3116877 84.28199562 -76.42106371 84.27295573 -79.53068542 84.26069641 C-80.89511466 84.2663654 -80.89511466 84.2663654 -82.28710812 84.27214891 C-83.11980357 84.26631671 -83.95249902 84.26048452 -84.81042767 84.25447559 C-85.88693884 84.25317543 -85.88693884 84.25317543 -86.98519772 84.251849 C-89.3258993 83.9592628 -90.95926678 83.15540887 -93 82 C-91.50282382 78.28601048 -89.44574726 76.50259241 -86.3125 74.0625 C-81.67598975 70.37023988 -77.15383086 66.58384527 -72.6875 62.6875 C-67.70838003 58.34996686 -62.71122587 54.03579299 -57.6875 49.75 C-53.67640744 46.32573395 -49.71344294 42.86272725 -45.8125 39.3125 C-42.47772886 36.28287132 -39.06712361 33.39391908 -35.5625 30.5625 C-31.75912497 27.48663412 -28.09917348 24.31246834 -24.5 21 C-19.99858542 16.85818487 -15.35195362 12.9593002 -10.59375 9.1171875 C-6.98165769 6.16876275 -3.48066574 3.10168208 0 0 Z " fill="#183D57" transform="translate(480,514)"/>
<path d="M0 0 C5.22002458 2.63777838 9.35156057 6.68681885 13.59375 10.65234375 C16.73080953 13.48270752 19.99164207 16.08695944 23.328125 18.67578125 C27.66397672 22.04212575 31.96516814 25.43569913 36.203125 28.92578125 C40.86533213 32.76483905 45.60073128 36.49761595 50.390625 40.17578125 C49.77931089 45.11481108 47.6401086 49.03697179 45.328125 53.36328125 C44.924729 54.11923584 44.52133301 54.87519043 44.10571289 55.65405273 C40.78948488 61.71940454 37.05763282 67.05984282 32.390625 72.17578125 C31.77832031 72.89121094 31.16601562 73.60664063 30.53515625 74.34375 C24.67901269 80.77947066 17.66220977 85.39967024 8.94140625 86.68359375 C2.37716144 86.90814032 -1.39629505 86.43913786 -6.609375 82.17578125 C-8.50076694 79.93606541 -10.12356166 77.55998983 -11.734375 75.11328125 C-15.96855994 68.49875586 -15.96855994 68.49875586 -22.5078125 64.5078125 C-36.53652728 62.29137987 -46.3702877 67.27455775 -57.609375 75.17578125 C-64.64090173 80.41999449 -71.19185697 86.20334915 -77.609375 92.17578125 C-78.32609375 92.82675781 -79.0428125 93.47773438 -79.78125 94.1484375 C-87.37209796 101.33758 -93.38993086 109.81543913 -99.609375 118.17578125 C-100.74022492 119.68539084 -101.87170957 121.19452521 -103.00390625 122.703125 C-103.5038208 123.36948975 -104.00373535 124.03585449 -104.51879883 124.72241211 C-104.87868896 125.20202393 -105.2385791 125.68163574 -105.609375 126.17578125 C-109.43063128 124.35474188 -112.61913044 121.98614421 -115.921875 119.36328125 C-116.52491455 118.88769775 -117.1279541 118.41211426 -117.74926758 117.92211914 C-123.20872114 113.57575124 -128.48719153 109.03008409 -133.72192383 104.41674805 C-134.3177124 103.89250244 -134.91350098 103.36825684 -135.52734375 102.828125 C-136.05094482 102.36398193 -136.5745459 101.89983887 -137.11401367 101.42163086 C-138.80115273 99.97106958 -138.80115273 99.97106958 -141.609375 98.17578125 C-141.609375 97.51578125 -141.609375 96.85578125 -141.609375 96.17578125 C-139.76844135 94.61312827 -137.92391052 93.1699549 -135.984375 91.73828125 C-134.77941649 90.83013176 -133.57500712 89.9212533 -132.37109375 89.01171875 C-131.43402588 88.30740723 -131.43402588 88.30740723 -130.47802734 87.58886719 C-127.55783592 85.38060119 -124.67477415 83.12625526 -121.796875 80.86328125 C-121.22179199 80.41154541 -120.64670898 79.95980957 -120.05419922 79.49438477 C-114.84886268 75.39119491 -109.71160365 71.20604697 -104.57543945 67.0168457 C-98.55012515 62.10967599 -92.45142438 57.3012893 -86.32714844 52.51855469 C-83.41665912 50.24344223 -80.51334584 47.95920406 -77.609375 45.67578125 C-74.13623471 42.94481451 -70.66188591 40.21550597 -67.1796875 37.49609375 C-60.91549489 32.59843996 -54.7058299 27.64280029 -48.546875 22.61328125 C-42.62036766 17.77984731 -36.66549084 12.99911813 -30.546875 8.41015625 C-28.69008608 6.99781149 -26.87049852 5.53388231 -25.109375 4.00390625 C-17.6784971 -2.10701308 -9.17609409 -2.89843691 0 0 Z " fill="#193D58" transform="translate(521.609375,316.82421875)"/>
<path d="M0 0 C0.02334859 20.01002108 0.04098883 40.02003939 0.05181217 60.03007126 C0.05697095 69.32083338 0.06400572 78.61158705 0.07543945 87.90234375 C0.08539902 95.9990862 0.09185647 104.09582252 0.09408849 112.19257092 C0.09539343 116.48069088 0.09846563 120.76879331 0.10573006 125.05690765 C0.11251032 129.09186063 0.11461285 133.12678884 0.11310768 137.16174698 C0.1133831 138.64362091 0.11537634 140.12549565 0.11920547 141.60736465 C0.12417394 143.62908582 0.12239026 145.65082024 0.12025452 147.67254639 C0.12117631 148.80450817 0.1220981 149.93646996 0.12304783 151.10273361 C0.01755762 153.58659079 -0.27424687 155.63546538 -1 158 C-5.05996279 156.31660079 -8.11274368 153.4885361 -11.375 150.625 C-12.63271772 149.53374492 -13.89053292 148.44260218 -15.1484375 147.3515625 C-15.7887793 146.7937207 -16.42912109 146.23587891 -17.08886719 145.66113281 C-20.04546008 143.09129913 -23.02308668 140.54623245 -26 138 C-27.16678172 137.00013425 -28.33344806 136.00013383 -29.5 135 C-30.36625 134.2575 -30.36625 134.2575 -31.25 133.5 C-33 132 -34.75 130.5 -36.5 129 C-37.07741943 128.50508057 -37.65483887 128.01016113 -38.24975586 127.50024414 C-39.41728228 126.49948394 -40.5847627 125.49867008 -41.75219727 124.49780273 C-44.65533629 122.00899324 -47.55924949 119.52109909 -50.46484375 117.03515625 C-73.94488856 96.94102111 -73.94488856 96.94102111 -83.7734375 88 C-86.62776534 85.43611253 -89.55606117 82.96336152 -92.50390625 80.5078125 C-94 79 -94 79 -95 76 C-85.83333333 68.5 -76.66666667 61 -67.5 53.5 C-66.12714844 52.37658203 -66.12714844 52.37658203 -64.7265625 51.23046875 C-62.97182216 49.79500065 -61.21664845 48.36006204 -59.4609375 46.92578125 C-54.62587196 42.97446636 -49.80001907 39.01242983 -44.98266602 35.03955078 C-38.00354824 29.28446772 -31.01202171 23.54562708 -23.98120117 17.85375977 C-20.47784682 15.01750338 -16.98669467 12.16786523 -13.51171875 9.296875 C-12.41065796 8.39110718 -12.41065796 8.39110718 -11.28735352 7.46704102 C-9.87187097 6.30214858 -8.459467 5.13350272 -7.05053711 3.96069336 C-2.22484356 0 -2.22484356 0 0 0 Z " fill="#193D57" transform="translate(649,428)"/>
<path d="M0 0 C3.7970533 1.78902551 6.73342139 4.19141139 9.875 6.9375 C14.47213261 10.89666852 19.13979899 14.72417389 23.9375 18.4375 C29.35402644 22.64008109 34.57383345 27.0251103 39.74975586 31.51928711 C43.74347762 34.96929672 47.82799554 38.26855904 52 41.5 C57.3929753 45.67714828 62.58736705 50.03589275 67.73681641 54.50854492 C72.42150825 58.55620808 77.2505412 62.38817221 82.14111328 66.18286133 C86.57179364 69.63071081 90.84647286 73.22054829 95 77 C92.29783472 80.59037702 89.53381082 83.35895165 86 86.125 C81.85009592 89.44713066 77.88397719 92.87743828 74 96.5 C69.39053293 100.79013876 64.62211689 104.80414982 59.71484375 108.75390625 C56.89326505 111.0883059 54.19409288 113.51990598 51.5 116 C47.94329756 119.27418423 44.32838189 122.40642433 40.5625 125.4375 C36.56775479 128.65943533 32.75450133 132.00659729 29 135.5 C24.35865311 139.81774104 19.56441135 143.87418767 14.625 147.8515625 C10.64083135 151.11241482 6.81446578 154.54343471 3 158 C-0.13132003 154.59934199 -0.37189671 152.22971925 -0.36076355 147.67254639 C-0.36488754 146.37126801 -0.36901154 145.06998962 -0.3732605 143.72927856 C-0.36264366 142.28924353 -0.35173924 140.84921059 -0.34057617 139.40917969 C-0.33972987 137.89136777 -0.34020511 136.37355462 -0.34190369 134.85574341 C-0.34276494 130.73616943 -0.32511823 126.61685714 -0.30418181 122.49734402 C-0.28543665 118.19186668 -0.28366628 113.88638343 -0.28010559 109.58087158 C-0.27077877 101.42819122 -0.24615638 93.27563144 -0.21605712 85.1230042 C-0.18253293 75.84136381 -0.16603209 66.55971768 -0.15097082 57.27803183 C-0.11960737 38.18528617 -0.06683449 19.09265278 0 0 Z " fill="#173B56" transform="translate(375,428)"/>
<path d="M0 0 C4.36316102 2.4066967 7.94926058 5.37362075 11.6875 8.625 C15.59201959 12.17332825 15.59201959 12.17332825 20 15 C18.41651853 19.35716143 15.02067835 21.82308089 11.5625 24.6875 C10.93069824 25.21931885 10.29889648 25.7511377 9.64794922 26.29907227 C7.77180316 27.87405873 5.88767003 29.43885421 4 31 C3.07316406 31.76828125 2.14632812 32.5365625 1.19140625 33.328125 C-2.13214981 36.05981491 -5.47525843 38.76687344 -8.8203125 41.47216797 C-10.83927771 43.10553898 -12.85740869 44.7399322 -14.875 46.375 C-15.90318848 47.20801636 -15.90318848 47.20801636 -16.95214844 48.05786133 C-21.22286559 51.52769269 -25.44208105 55.05003725 -29.625 58.625 C-33.97796023 62.34450956 -38.41445767 65.92703229 -42.9375 69.4375 C-48.44348886 73.71150277 -53.76043329 78.16538005 -59.02880859 82.72802734 C-63.09113499 86.24092667 -67.23694193 89.62174094 -71.453125 92.94921875 C-73.8928193 94.91369652 -76.28305614 96.9287302 -78.66333008 98.96459961 C-83.65963498 103.23753127 -88.70194077 107.44207772 -93.875 111.5 C-94.88304687 112.2940625 -95.89109375 113.088125 -96.9296875 113.90625 C-103.00198568 118.04715563 -108.62436065 120.1031391 -116 119 C-123.4444837 116.77997504 -129.23167707 110.93889087 -135 106 C-136.06835834 105.09428235 -137.13738383 104.18935114 -138.20703125 103.28515625 C-139.85860087 101.88873312 -141.50968474 100.49177802 -143.15844727 99.09204102 C-148.3831761 94.65919604 -153.68462049 90.32358858 -159 86 C-160.83379879 84.50056908 -162.66712943 83.00056542 -164.5 81.5 C-165.84964844 80.39591797 -165.84964844 80.39591797 -167.2265625 79.26953125 C-169.13848112 77.7049894 -171.04991025 76.13984925 -172.9609375 74.57421875 C-173.92257812 73.78660156 -174.88421875 72.99898438 -175.875 72.1875 C-176.73867188 71.47980469 -177.60234375 70.77210938 -178.4921875 70.04296875 C-180.98312014 68.01375104 -183.48811818 66.00320324 -186 64 C-180.46736652 51.55157467 -164.59930101 40.55978423 -152.1875 35.5859375 C-146.89776703 34.16904474 -142.00953755 34.36955685 -136.8125 36 C-129.28340456 41.35402343 -125.21709972 48.84666484 -120.69897461 56.69848633 C-113.44598379 69.43184622 -113.44598379 69.43184622 -101.08984375 76.56640625 C-87.03639868 79.48216775 -73.65226335 72.67958699 -62.14453125 65.1875 C-51.66344373 57.89630868 -42.20459849 49.83344533 -33 41 C-32.175 40.21625 -31.35 39.4325 -30.5 38.625 C-18.75622968 27.20744552 -8.9785355 13.66662862 0 0 Z " fill="#F47528" transform="translate(623,398)"/>
<path d="M0 0 C5.68959077 3.52754628 8.93260527 8.62074111 12.6875 14.0625 C16.72895876 19.89918004 21.12892146 25.66166722 28.125 27.9375 C38.01553776 29.36086152 45.00551747 27.6238716 53.125 21.9375 C54.15625 21.215625 55.1875 20.49375 56.25 19.75 C60.00537147 16.42162412 62.9906546 12.29895294 66.07421875 8.36328125 C68.125 5.9375 68.125 5.9375 71.125 3.9375 C66.70680888 16.12393925 59.1126508 27.83359908 51.125 37.9375 C50.49851562 38.76636719 49.87203125 39.59523438 49.2265625 40.44921875 C42.02101732 49.68391171 33.59386741 57.86965431 25.125 65.9375 C24.40973145 66.62134766 23.69446289 67.30519531 22.95751953 68.00976562 C22.26126465 68.65107422 21.56500977 69.29238281 20.84765625 69.953125 C20.22769775 70.52836914 19.60773926 71.10361328 18.96899414 71.69628906 C17.125 72.9375 17.125 72.9375 13.125 72.9375 C12.75737549 72.27218262 12.38975098 71.60686523 12.01098633 70.92138672 C10.32637367 67.88140856 8.63204148 64.84695399 6.9375 61.8125 C6.35935547 60.76578125 5.78121094 59.7190625 5.18554688 58.640625 C-1.73896306 46.22185828 -1.73896306 46.22185828 -13.80859375 39.35546875 C-26.29212501 36.83044447 -36.42888121 42.58123611 -46.64990234 49.21435547 C-55.47752296 55.19798206 -63.05146083 62.75689057 -70.15625 70.671875 C-71.875 71.9375 -71.875 71.9375 -73.765625 71.89453125 C-76.59701131 70.6099208 -78.73380803 68.85717229 -81.125 66.875 C-82.46304687 65.77478516 -82.46304687 65.77478516 -83.828125 64.65234375 C-84.50359375 64.08644531 -85.1790625 63.52054687 -85.875 62.9375 C-78.0246012 50.58748238 -68.94328802 39.51443853 -58.875 28.9375 C-58.18277344 28.18082031 -57.49054688 27.42414063 -56.77734375 26.64453125 C-43.83122123 12.95007795 -20.43972215 -7.47012267 0 0 Z " fill="#EF5727" transform="translate(500.875,381.0625)"/>
<path d="M0 0 C3.25 2.1875 3.25 2.1875 5.25 5.1875 C5.58 3.2075 5.91 1.2275 6.25 -0.8125 C10.87 -0.8125 15.49 -0.8125 20.25 -0.8125 C20.34929718 6.83720161 20.42167257 14.48652328 20.46972656 22.13671875 C20.4897713 24.73606914 20.51701447 27.33537483 20.55175781 29.93457031 C20.60058865 33.6830553 20.62304126 37.43094111 20.640625 41.1796875 C20.66127014 42.33113251 20.68191528 43.48257751 20.70318604 44.66891479 C20.70532013 52.44163072 19.93837394 60.07301782 14.5401001 66.09494019 C6.41616203 73.56002363 -2.27103471 74.66491536 -12.9453125 74.47265625 C-20.59926692 73.89900258 -26.66057217 70.67444682 -32.75 66.1875 C-31.09832443 62.6088696 -28.96713508 59.43929812 -26.75 56.1875 C-24.03813974 57.22438775 -21.64788385 58.25225658 -19.1875 59.8125 C-12.98451601 62.2936936 -6.40755618 62.10389868 -0.125 59.9375 C2.42903152 58.05558204 3.11158589 57.08528136 4.25 54.1875 C4.48979762 51.82527768 4.48979762 51.82527768 4.375 49.4375 C4.35695313 48.63828125 4.33890625 47.8390625 4.3203125 47.015625 C4.29710937 46.41234375 4.27390625 45.8090625 4.25 45.1875 C3.528125 45.80625 2.80625 46.425 2.0625 47.0625 C-4.08628226 51.70824659 -10.24226586 52.12474639 -17.75 51.1875 C-23.62538387 48.99767307 -28.44857694 44.46360601 -31.75 39.1875 C-35.57366318 30.74658318 -36.27992886 21.59867906 -33.0625 12.875 C-30.38367581 6.96472704 -26.96983576 1.98233752 -21.03125 -1.1171875 C-14.341517 -3.15618146 -6.35112553 -3.00720569 0 0 Z " fill="#1E415D" transform="translate(382.75,669.8125)"/>
<path d="M0 0 C5.40387589 4.19738203 10.68970644 9.71772081 12.08203125 16.6171875 C13.08294315 26.86402312 11.75704096 34.7109219 6.33203125 43.4296875 C0.02954479 49.55710489 -6.9636722 52.64860887 -15.73046875 52.9921875 C-24.58877225 52.80604268 -30.74954565 49.50891722 -37.19140625 43.5546875 C-42.864052 37.18900358 -44.24088566 30.04168372 -44.12109375 21.74609375 C-43.52714891 12.59705879 -39.63168982 6.74284541 -32.91796875 0.6171875 C-24.64805188 -6.43879662 -8.91337394 -5.37535669 0 0 Z " fill="#F5842B" transform="translate(671.91796875,671.3828125)"/>
<path d="M0 0 C4.29 0 8.58 0 13 0 C18.85111386 19.33329208 18.85111386 19.33329208 20.875 26.5 C21.09929688 27.2940625 21.32359375 28.088125 21.5546875 28.90625 C22 31 22 31 22 35 C22.66 35 23.32 35 24 35 C24.23074219 33.88625 24.46148438 32.7725 24.69921875 31.625 C26.9129862 21.18439406 29.6797075 11.14533818 33 1 C37.95 1 42.9 1 48 1 C46.07336429 8.23445328 43.98378231 15.36977916 41.64453125 22.48046875 C41.33803146 23.41933426 41.03153168 24.35819977 40.71574402 25.32551575 C39.75049431 28.28033444 38.78156793 31.23393163 37.8125 34.1875 C37.15144751 36.2089042 36.49063808 38.23038792 35.83007812 40.25195312 C34.22285578 45.16889079 32.61233835 50.0847377 31 55 C26.38 55 21.76 55 17 55 C14.01292584 47.90488893 11.73566885 40.88540847 9.8125 33.4375 C9.30114346 31.47708843 8.7869787 29.51740644 8.26953125 27.55859375 C7.93852417 26.27940063 7.93852417 26.27940063 7.60083008 24.97436523 C7.17459593 23.0177245 7.17459593 23.0177245 6 22 C2.7 32.89 -0.6 43.78 -4 55 C-8.62 55 -13.24 55 -18 55 C-21.48387126 46.10475483 -24.63292071 37.21687532 -27.23828125 28.0234375 C-28.39635342 23.96266495 -29.6802157 20.01147363 -31.1875 16.0625 C-33.06593136 11.10404962 -34.09206952 6.22060024 -35 1 C-30.05 1 -25.1 1 -20 1 C-13.70030581 21.63200815 -13.70030581 21.63200815 -11.54296875 30.98046875 C-11.18525865 32.98116302 -11.18525865 32.98116302 -10 34 C-8.89306722 30.39667716 -7.78997982 26.79218753 -6.6875 23.1875 C-6.2244043 21.68026367 -6.2244043 21.68026367 -5.75195312 20.14257812 C-3.71020833 13.45855043 -1.808769 6.75088244 0 0 Z " fill="#F5862D" transform="translate(723,668)"/>
<path d="M0 0 C1.21816406 -0.00483398 1.21816406 -0.00483398 2.4609375 -0.00976562 C9.9752834 0.05646659 16.40704899 1.39191474 23.125 4.9375 C23.9809375 5.38351562 24.836875 5.82953125 25.71875 6.2890625 C26.3478125 6.62679687 26.976875 6.96453125 27.625 7.3125 C26.96715037 10.60930965 25.73079427 13.15367922 24.0625 16.0625 C23.60746094 16.86171875 23.15242188 17.6609375 22.68359375 18.484375 C22.33425781 19.08765625 21.98492187 19.6909375 21.625 20.3125 C20.06652344 19.6628125 20.06652344 19.6628125 18.4765625 19 C6.25730495 13.8216741 6.25730495 13.8216741 -6.59375 15.1171875 C-8.81486796 16.30617469 -8.81486796 16.30617469 -9.125 19.9375 C-9.2075 21.05125 -9.29 22.165 -9.375 23.3125 C-3.53204664 27.8257447 2.67699351 29.1723187 9.75 30.93554688 C17.87515404 33.08391253 24.85783458 36.06640856 29.625 43.3125 C31.70948531 49.56595593 31.34244751 55.53184602 28.6875 61.5625 C25.52899813 67.27659883 20.76331879 71.08381883 14.48046875 72.94921875 C10.13355561 73.502246 5.81551885 73.53781772 1.4375 73.5625 C0.54224609 73.583125 -0.35300781 73.60375 -1.27539062 73.625 C-9.73220756 73.67384804 -17.53814514 72.17795917 -24.5 67.125 C-25.24507813 66.59519531 -25.99015625 66.06539062 -26.7578125 65.51953125 C-27.29148438 65.12121094 -27.82515625 64.72289062 -28.375 64.3125 C-27.71715037 61.01569035 -26.48079427 58.47132078 -24.8125 55.5625 C-24.35746094 54.76328125 -23.90242188 53.9640625 -23.43359375 53.140625 C-23.08425781 52.53734375 -22.73492187 51.9340625 -22.375 51.3125 C-21.41078125 51.80621094 -20.4465625 52.29992187 -19.453125 52.80859375 C-18.17719148 53.45594237 -16.90114379 54.10306599 -15.625 54.75 C-14.99078125 55.07548828 -14.3565625 55.40097656 -13.703125 55.73632812 C-8.08586462 58.57421488 -4.14801793 59.47617407 2.125 59.5625 C3.2490625 59.58828125 4.373125 59.6140625 5.53125 59.640625 C8.91142189 59.28212192 10.29142157 58.75369491 12.625 56.3125 C12.95897787 53.18663125 12.95897787 53.18663125 12.625 50.3125 C7.78095409 47.28810864 3.48718687 45.57786025 -2.125 44.4375 C-10.07112693 42.61320938 -19.01741298 40.24294826 -24.0625 33.3125 C-26.76447427 27.34952231 -26.55576239 19.19309551 -24.6796875 13.02734375 C-19.52526221 3.1732954 -10.34918359 -0.20340377 0 0 Z " fill="#1B3F5C" transform="translate(282.375,649.6875)"/>
<path d="M0 0 C4.27912596 3.86604202 6.79661944 8.2714201 7.22705078 14.04614258 C7.21657715 15.15111084 7.20610352 16.2560791 7.1953125 17.39453125 C7.18886719 18.59658203 7.18242188 19.79863281 7.17578125 21.03710938 C7.15902344 22.28298828 7.14226563 23.52886719 7.125 24.8125 C7.11597656 26.07771484 7.10695313 27.34292969 7.09765625 28.64648438 C7.07412394 31.76451564 7.04124545 34.88216097 7 38 C7.99 38 8.98 38 10 38 C10 42.29 10 46.58 10 51 C-1.00106045 51.60445387 -1.00106045 51.60445387 -3.83984375 49.88671875 C-5.125 48.5 -5.125 48.5 -7 46 C-9.28601729 45.81509993 -9.28601729 45.81509993 -11.8125 47.875 C-17.87349511 51.91566341 -22.78534828 52.74234359 -30 52 C-34.71604611 50.30934196 -37.79014248 47.83399648 -41 44 C-43.006808 39.60413485 -43.57912719 35.7984824 -43 31 C-40.41462622 24.84819542 -36.99824419 21.72647463 -31 19 C-28.08457212 18.10671703 -25.49644143 17.8817808 -22.453125 17.90234375 C-21.60878906 17.90556641 -20.76445312 17.90878906 -19.89453125 17.91210938 C-19.02183594 17.92048828 -18.14914062 17.92886719 -17.25 17.9375 C-16.36183594 17.94201172 -15.47367187 17.94652344 -14.55859375 17.95117188 C-12.37232671 17.962926 -10.18619821 17.97935751 -8 18 C-9.04152623 13.10530047 -9.04152623 13.10530047 -11.83203125 9.08984375 C-15.79519992 7.09754815 -19.68167271 7.40023232 -24 8 C-26.48465157 8.88029833 -28.7553098 9.90477173 -31.08984375 11.125 C-33 12 -33 12 -36 12 C-36.50615298 10.73160474 -37.00469099 9.46016898 -37.5 8.1875 C-37.7784375 7.47980469 -38.056875 6.77210938 -38.34375 6.04296875 C-39 4 -39 4 -39 1 C-37.60721983 0.34760842 -36.21060788 -0.29660552 -34.8125 -0.9375 C-34.03519531 -1.29714844 -33.25789063 -1.65679688 -32.45703125 -2.02734375 C-22.96721767 -5.78404261 -8.48906742 -6.10386485 0 0 Z " fill="#21445F" transform="translate(519,672)"/>
<path d="M0 0 C5.68959077 3.52754628 8.93260527 8.62074111 12.6875 14.0625 C16.77627405 19.96751285 21.14928203 25.43724266 28.125 27.9375 C32.12109222 28.53841612 36.08812528 28.80492612 40.125 28.9375 C29.37463992 36.10440672 13.79241864 35.00809524 1.5625 32.9375 C-25.0293557 28.78538476 -47.30873822 34.42215995 -69.81640625 48.8359375 C-71.875 49.9375 -71.875 49.9375 -74.875 49.9375 C-73.25905168 47.89630212 -71.5893618 45.89677063 -69.875 43.9375 C-69.215 43.9375 -68.555 43.9375 -67.875 43.9375 C-67.66544678 43.08913574 -67.66544678 43.08913574 -67.45166016 42.22363281 C-65.6532841 35.89154674 -62.99706999 32.16570614 -58.25 27.6875 C-57.59265869 27.05199219 -56.93531738 26.41648437 -56.25805664 25.76171875 C-42.5841302 12.81035238 -20.61665011 -7.53478468 0 0 Z " fill="#F39322" transform="translate(500.875,381.0625)"/>
<path d="M0 0 C16.83 0 33.66 0 51 0 C51 4.62 51 9.24 51 14 C39.45 14 27.9 14 16 14 C16 19.61 16 25.22 16 31 C26.23 31 36.46 31 47 31 C47 35.62 47 40.24 47 45 C36.77 45 26.54 45 16 45 C16 54.24 16 63.48 16 73 C10.72 73 5.44 73 0 73 C0 48.91 0 24.82 0 0 Z " fill="#F68D29" transform="translate(540,650)"/>
<path d="M0 0 C3.87644909 2.68533167 5.93758388 5.67213119 7.84765625 9.97265625 C8.47772136 13.46469635 8.43508663 16.83979481 8.3359375 20.37890625 C8.32886276 21.34421265 8.32178802 22.30951904 8.3144989 23.30407715 C8.28670311 26.36108755 8.22399286 29.41620762 8.16015625 32.47265625 C8.13505422 34.55596297 8.1122444 36.63929865 8.09179688 38.72265625 C8.03692502 43.80670833 7.950756 48.88936277 7.84765625 53.97265625 C2.89765625 53.97265625 -2.05234375 53.97265625 -7.15234375 53.97265625 C-7.16168945 52.87276367 -7.17103516 51.77287109 -7.18066406 50.63964844 C-7.22057312 46.55411459 -7.28633379 42.46933306 -7.35986328 38.38427734 C-7.38806772 36.61712314 -7.40928493 34.84984291 -7.42333984 33.08251953 C-7.44477733 30.54003403 -7.49142878 27.99906287 -7.54296875 25.45703125 C-7.54419739 24.66834656 -7.54542603 23.87966187 -7.54669189 23.06707764 C-7.64120054 19.5181282 -7.85750891 17.37590711 -9.97949219 14.47363281 C-13.20631902 12.24458434 -15.31368615 12.44318624 -19.15234375 12.97265625 C-22.85624396 14.99931863 -24.80597386 16.45310141 -27.15234375 19.97265625 C-27.39255545 22.58059016 -27.5249807 25.0915277 -27.56640625 27.703125 C-27.5857724 28.45354568 -27.60513855 29.20396637 -27.62509155 29.97712708 C-27.68481834 32.37135492 -27.7312444 34.76563102 -27.77734375 37.16015625 C-27.81552995 38.78452605 -27.85458206 40.40887573 -27.89453125 42.03320312 C-27.992143 46.01291553 -28.07176351 49.99241663 -28.15234375 53.97265625 C-33.10234375 53.97265625 -38.05234375 53.97265625 -43.15234375 53.97265625 C-43.15234375 36.15265625 -43.15234375 18.33265625 -43.15234375 -0.02734375 C-38.53234375 -0.02734375 -33.91234375 -0.02734375 -29.15234375 -0.02734375 C-29.15234375 2.28265625 -29.15234375 4.59265625 -29.15234375 6.97265625 C-28.49234375 6.97265625 -27.83234375 6.97265625 -27.15234375 6.97265625 C-26.96671875 6.39515625 -26.78109375 5.81765625 -26.58984375 5.22265625 C-21.1288422 -3.32499834 -8.67669799 -2.8277219 0 0 Z " fill="#1F435F" transform="translate(459.15234375,669.02734375)"/>
<path d="M0 0 C4.95 0 9.9 0 15 0 C15.02505615 1.80710449 15.0501123 3.61420898 15.07592773 5.47607422 C15.15974186 11.43926702 15.24801126 17.40237984 15.33933926 23.36546135 C15.39456054 26.9817282 15.44797924 30.59800315 15.49731445 34.21435547 C15.54496978 37.70275122 15.59731296 41.1910477 15.65294075 44.6793251 C15.68331232 46.66132188 15.70879787 48.64339155 15.73423767 50.62545776 C15.75418289 51.82655182 15.77412811 53.02764587 15.79467773 54.26513672 C15.81022202 55.32658905 15.8257663 56.38804138 15.84178162 57.48165894 C15.83529181 59.99579236 15.83529181 59.99579236 17 62 C19.64 62 22.28 62 25 62 C25 65.96 25 69.92 25 74 C20.80624797 76.09687602 18.66759065 76.32585282 14.0625 76.375 C12.85722656 76.40335938 11.65195312 76.43171875 10.41015625 76.4609375 C6.3540131 75.91268447 4.80581168 74.94133388 2 72 C-0.01261323 68.01311033 -0.2437543 64.7167678 -0.22705078 60.28198242 C-0.22734283 59.62776306 -0.22763489 58.9735437 -0.22793579 58.29949951 C-0.22654982 56.15135121 -0.21102371 54.00355596 -0.1953125 51.85546875 C-0.19157975 50.3604603 -0.18873402 48.8654494 -0.18673706 47.37043762 C-0.17912118 43.44622986 -0.15949041 39.52217145 -0.1373291 35.59802246 C-0.11682649 31.5894574 -0.10772592 27.58086807 -0.09765625 23.57226562 C-0.07624243 15.71476776 -0.04107711 7.8574197 0 0 Z " fill="#F5882B" transform="translate(600,647)"/>
<path d="M0 0 C4.36316102 2.4066967 7.94926058 5.37362075 11.6875 8.625 C15.59201959 12.17332825 15.59201959 12.17332825 20 15 C18.41651853 19.35716143 15.02067835 21.82308089 11.5625 24.6875 C10.93069824 25.21931885 10.29889648 25.7511377 9.64794922 26.29907227 C7.77180316 27.87405873 5.88767003 29.43885421 4 31 C3.07316406 31.76828125 2.14632812 32.5365625 1.19140625 33.328125 C-0.53439087 34.74658839 -2.2649578 36.15926637 -4 37.56640625 C-6.36168722 39.482202 -8.71421731 41.40771929 -11.0625 43.33984375 C-12.49993603 44.5183072 -13.93743589 45.6966928 -15.375 46.875 C-16.05353027 47.43501709 -16.73206055 47.99503418 -17.43115234 48.57202148 C-20.82466318 51.34519955 -24.14788432 53.87315621 -28 56 C-31.33333333 52.66666667 -34.66666667 49.33333333 -38 46 C-37.09378906 45.11699219 -36.18757812 44.23398437 -35.25390625 43.32421875 C-21.83458111 30.14864631 -10.32312267 15.71328463 0 0 Z " fill="#1C3F5A" transform="translate(623,398)"/>
<path d="M0 0 C4.95 0 9.9 0 15 0 C15 17.82 15 35.64 15 54 C10.05 54 5.1 54 0 54 C0 36.18 0 18.36 0 0 Z " fill="#1E435D" transform="translate(323,669)"/>
<path d="M0 0 C4.38544865 2.19272433 7.23315916 4.38658225 9 9 C9.65501781 14.21588255 9.80266352 19.22593366 7.375 24 C4.06097304 28.18613932 1.2507255 29.6717692 -4 30.4375 C-8.01753269 29.85160982 -9.93196266 28.66785856 -13 26 C-16.06029795 21.73069545 -17.73231877 17.30493445 -17.4609375 12.0234375 C-15.33866519 2.70702179 -9.15769303 -1.26798827 0 0 Z " fill="#FBFAF8" transform="translate(660,681)"/>
<path d="M0 0 C3.31838097 1.29422992 6.35040287 2.70080575 8 6 C8.20353204 8.80874216 8.32362682 11.56348601 8.375 14.375 C8.41238281 15.14328125 8.44976562 15.9115625 8.48828125 16.703125 C8.57680736 22.38846845 8.57680736 22.38846845 5.6640625 25.4765625 C1.211483 28.02275899 -2.93554578 28.69887553 -8 28 C-12.0410873 25.9046214 -14.37643167 24.24625563 -16 20 C-16.61250946 15.00965973 -17.20785096 9.46958374 -14.94921875 4.8515625 C-10.63655709 -0.36434098 -6.40234183 -0.78332078 0 0 Z " fill="#F8F9F9" transform="translate(380,681)"/>
<path d="M0 0 C0.35037709 3.39995548 0.48899099 6.60895377 0 10 C-2.67759244 12.95944427 -4.58099313 13.8129991 -8.51953125 14.33203125 C-15.21806092 14.59683403 -15.21806092 14.59683403 -17.765625 12.65234375 C-19 11 -19 11 -19.5625 8.125 C-18.94567512 4.6981951 -17.99412259 3.02051543 -15.19921875 0.90234375 C-10.43092742 -1.0540955 -5.0499205 -0.33716086 0 0 Z " fill="#F2F4F4" transform="translate(510,698)"/>
<path d="M0 0 C4.95 0 9.9 0 15 0 C15 4.62 15 9.24 15 14 C10.05 14 5.1 14 0 14 C0 9.38 0 4.76 0 0 Z " fill="#1E415E" transform="translate(323,648)"/>
<path d="M0 0 C0.99 0.33 1.98 0.66 3 1 C2.67 1.66 2.34 2.32 2 3 C1.89410242 4.98889881 1.85334196 6.98137049 1.84178162 8.97305298 C1.8319928 10.24633957 1.82220398 11.51962616 1.81211853 12.83149719 C1.80621395 14.25045739 1.80040353 15.66941798 1.79467773 17.08837891 C1.78510188 18.57634251 1.77509198 20.06430337 1.76467896 21.55226135 C1.73759206 25.59951703 1.71660303 29.64678441 1.69667697 33.69408083 C1.67484072 37.92086208 1.6474405 42.14760709 1.62062073 46.37435913 C1.57066185 54.38182293 1.5257349 62.3893068 1.48259836 70.39680994 C1.43325326 79.51157982 1.37832504 88.62631335 1.32291877 97.7410481 C1.20904969 116.49399833 1.1022214 135.24698285 1 154 C0.67 154 0.34 154 0 154 C0 103.18 0 52.36 0 0 Z " fill="#39566B" transform="translate(375,428)"/>
<path d="M0 0 C0.99 0.33 1.98 0.66 3 1 C2.67 1.66 2.34 2.32 2 3 C1.88055524 4.7865453 1.82277682 6.57736251 1.79467773 8.36767578 C1.7647599 10.04919235 1.7647599 10.04919235 1.73423767 11.76467896 C1.71752518 12.97928802 1.70081268 14.19389709 1.68359375 15.4453125 C1.66281265 16.68546112 1.64203156 17.92560974 1.62062073 19.20333862 C1.56622295 22.50111823 1.51599905 25.7989272 1.46777344 29.09680176 C1.41754766 32.46172653 1.36186723 35.8265605 1.30664062 39.19140625 C1.19938443 45.79419854 1.09762811 52.39705872 1 59 C0.67 59 0.34 59 0 59 C0 39.53 0 20.06 0 0 Z " fill="#315065" transform="translate(375,428)"/>
<path d="M0 0 C0.6875 1.75 0.6875 1.75 1 4 C-0.3125 6.25 -0.3125 6.25 -2 8 C-2.66 8 -3.32 8 -4 8 C-4.66 9.32 -5.32 10.64 -6 12 C-6.66 12 -7.32 12 -8 12 C-7.731875 12.556875 -7.46375 13.11375 -7.1875 13.6875 C-7.125625 14.450625 -7.06375 15.21375 -7 16 C-9.46026571 18.87030999 -11.85489214 20.90326143 -15 23 C-15 18.7909176 -12.71802909 16.44605359 -10.3125 13.1875 C-9.87744141 12.58357422 -9.44238281 11.97964844 -8.99414062 11.35742188 C-6.14483043 7.43592681 -3.13894308 3.6932069 0 0 Z " fill="#E5732A" transform="translate(435,417)"/>
<path d="M0 0 C0 3.72207387 -1.17964568 5.46395589 -3 8.6875 C-3.8353125 10.17830078 -3.8353125 10.17830078 -4.6875 11.69921875 C-5.120625 12.45847656 -5.55375 13.21773438 -6 14 C-6.99 14 -7.98 14 -9 14 C-10.33981486 14.3062434 -11.67511887 14.63451555 -13 15 C-8.70214922 9.96836982 -4.36574458 4.97281557 0 0 Z " fill="#EE673A" transform="translate(571,385)"/>
<path d="M0 0 C1.32 0.33 2.64 0.66 4 1 C4 2.32 4 3.64 4 5 C5.91859167 7.73219193 5.91859167 7.73219193 8 10 C7.01 10.33 6.02 10.66 5 11 C2.95703125 9.56640625 2.95703125 9.56640625 0.8125 7.5625 C0.09707031 6.90378906 -0.61835937 6.24507813 -1.35546875 5.56640625 C-1.89816406 5.04949219 -2.44085937 4.53257812 -3 4 C-2.01 2.68 -1.02 1.36 0 0 Z " fill="#234250" transform="translate(588,441)"/>
<path d="M0 0 C3.62613199 0.56959153 5.25517741 1.92374534 7.75 4.5625 C8.36359375 5.20316406 8.9771875 5.84382813 9.609375 6.50390625 C10.06828125 6.99761719 10.5271875 7.49132812 11 8 C10.34 9.32 9.68 10.64 9 12 C8.67 12 8.34 12 8 12 C8 10.35 8 8.7 8 7 C7.01 6.67 6.02 6.34 5 6 C5 5.34 5 4.68 5 4 C2.69 3.67 0.38 3.34 -2 3 C-1.34 2.01 -0.68 1.02 0 0 Z " fill="#F5A624" transform="translate(584,445)"/>
<path d="M0 0 C0.66 0 1.32 0 2 0 C1.46884894 4.51478398 -0.36620292 7.34666857 -3 11 C-3.99 10.67 -4.98 10.34 -6 10 C-4.34643078 6.41726669 -2.32019297 3.19026533 0 0 Z " fill="#2A5166" transform="translate(356,726)"/>
<path d="M0 0 C4.21814817 3.9700218 7.61227103 8.30840284 11 13 C10.67 13.66 10.34 14.32 10 15 C5.94635434 13.31098098 4.47114587 11.39156143 2.75 7.5 C1.74060348 5.01787742 0.84773522 2.54320566 0 0 Z " fill="#F1A021" transform="translate(507,388)"/>
<path d="M0 0 C0 3 0 3 -1.75 5.04296875 C-2.4925 5.75066406 -3.235 6.45835937 -4 7.1875 C-4.7425 7.90292969 -5.485 8.61835937 -6.25 9.35546875 C-6.8275 9.89816406 -7.405 10.44085937 -8 11 C-8 7.45459812 -7.40614728 6.93992636 -5.125 4.375 C-4.59132813 3.76398437 -4.05765625 3.15296875 -3.5078125 2.5234375 C-2 1 -2 1 0 0 Z " fill="#224962" transform="translate(267,653)"/>
<path d="M0 0 C2.3828125 -0.29296875 2.3828125 -0.29296875 5.125 -0.1875 C6.03507813 -0.16042969 6.94515625 -0.13335937 7.8828125 -0.10546875 C8.58148437 -0.07066406 9.28015625 -0.03585937 10 0 C5.58119757 2.94586829 3.32232661 3.0985616 -2 3 C-1.34 2.01 -0.68 1.02 0 0 Z " fill="#F6A73E" transform="translate(531,410)"/>
<path d="M0 0 C-0.17625835 2.37948772 -0.69719773 3.70225849 -2.40234375 5.37890625 C-3.90649092 6.62115486 -5.45129851 7.81376056 -7 9 C-4.4 0 -4.4 0 0 0 Z " fill="#E7872B" transform="translate(453,401)"/>
<path d="M0 0 C0.99 0.33 1.98 0.66 3 1 C4.89212737 1.22179785 6.78884472 1.40614015 8.6875 1.5625 C9.68136719 1.64628906 10.67523437 1.73007812 11.69921875 1.81640625 C12.83810547 1.90728516 12.83810547 1.90728516 14 2 C14 2.33 14 2.66 14 3 C3.55479452 4.36986301 3.55479452 4.36986301 0 2 C0 1.34 0 0.68 0 0 Z " fill="#DDDDD6" transform="translate(518,401)"/>
<path d="M0 0 C0.99 0.66 1.98 1.32 3 2 C1.35 3.98 -0.3 5.96 -2 8 C-2.66 7.67 -3.32 7.34 -4 7 C-2.68 4.69 -1.36 2.38 0 0 Z " fill="#265167" transform="translate(260,701)"/>
<path d="M0 0 C1.0625 1.8125 1.0625 1.8125 2 4 C1.67 4.99 1.34 5.98 1 7 C-1.31 6.01 -3.62 5.02 -6 4 C-2.25 2.875 -2.25 2.875 0 4 C0 2.68 0 1.36 0 0 Z " fill="#F4B242" transform="translate(654,359)"/>
<path d="M0 0 C0.66 0.66 1.32 1.32 2 2 C-2.75 6.875 -2.75 6.875 -5 8 C-3.62845496 5.04590299 -2.01136276 2.55991624 0 0 Z " fill="#F8F4E8" transform="translate(606,403)"/>
</svg>
